<svg xmlns="http://www.w3.org/2000/svg" viewBox="0 0 563 453"><defs><style>.cls-1{fill:#3fa9f5;}.cls-2{fill:#3f79b1;}.cls-3{fill:#a8f2ff;}.cls-4{fill:#24cbf5;}.cls-5{fill:#2da9f5;}</style></defs><title>アセット 1</title>
<g id="brain" data-name="brain"><polygon class="cls-1" points="75 192 23 266 0 188 75 192"/><polygon class="cls-2" points="120 128 83 50 9 124 120 128"/><polygon class="cls-3" points="75 192 9 124 0 188 75 192"/><polygon class="cls-1" points="120 128 75 192 9 124 120 128"/><polygon class="cls-1" points="272 0 196 68 83 50 272 0"/><polygon class="cls-4" points="120 128 196 68 83 50 120 128"/><polygon class="cls-3" points="290 58 272 0 196 68 290 58"/><polygon class="cls-3" points="178 121 196 68 120 128 178 121"/><polygon class="cls-1" points="290 58 178 121 196 68 290 58"/><polygon class="cls-2" points="389 23 290 58 272 0 389 23"/><polygon class="cls-3" points="178 121 288 113 290 58 178 121"/><polygon class="cls-3" points="467 62 379 90 389 23 467 62"/><polygon class="cls-4" points="290 58 379 90 389 23 290 58"/><polygon class="cls-1" points="288 113 379 90 290 58 288 113"/><polygon class="cls-2" points="178 121 148 194 120 128 178 121"/><polygon class="cls-4" points="75 192 148 194 120 128 75 192"/><polygon class="cls-1" points="178 121 222 192 148 194 178 121"/><polygon class="cls-2" points="288 113 222 192 178 121 288 113"/><polygon class="cls-2" points="23 266 148 194 75 192 23 266"/><polygon class="cls-2" points="87 306 126 257 23 266 87 306"/><polygon class="cls-4" points="148 194 126 257 23 266 148 194"/><polygon class="cls-1" points="87 306 126 257 142 291 87 306"/><polygon class="cls-3" points="222 192 126 257 148 194 222 192"/><polygon class="cls-4" points="379 90 340 160 288 113 379 90"/><polygon class="cls-3" points="222 192 340 160 288 113 222 192"/><polygon class="cls-3" points="142 291 238 255 126 257 142 291"/><polygon class="cls-2" points="222 192 238 255 126 257 222 192"/><polygon class="cls-4" points="340 160 238 255 222 192 340 160"/><polygon class="cls-1" points="142 291 182 338 238 255 142 291"/><polygon class="cls-3" points="261 338 238 255 182 338 261 338"/><polygon class="cls-2" points="343 355 261 338 306 395 343 355"/><polygon class="cls-4" points="352 453 306 395 348 410 352 453"/><polygon class="cls-3" points="343 355 306 395 348 410 343 355"/><polygon class="cls-5" points="379 90 467 149 467 62 379 90"/><polygon class="cls-2" points="340 160 467 149 379 90 340 160"/><polygon class="cls-1" points="238 255 389 242 340 160 238 255"/><polygon class="cls-4" points="261 338 343 281 238 255 261 338"/><polygon class="cls-2" points="389 242 386 341 343 281 389 242"/><polygon class="cls-3" points="238 255 389 242 343 281 238 255"/><polygon class="cls-1" points="261 338 343 281 343 355 261 338"/><polygon class="cls-4" points="386 341 343 281 343 355 386 341"/><polygon class="cls-3" points="386 371 386 341 343 355 386 371"/><polygon class="cls-1" points="438 364 431 267 386 341 438 364"/><polygon class="cls-2" points="386 371 438 364 386 341 386 371"/><polygon class="cls-3" points="389 242 431 267 386 341 389 242"/><polygon class="cls-3" points="467 149 389 242 340 160 467 149"/><polygon class="cls-4" points="431 267 500 215 389 242 431 267"/><polygon class="cls-1" points="467 149 500 215 389 242 467 149"/><polygon class="cls-2" points="467 62 542 152 467 149 467 62"/><polygon class="cls-4" points="500 215 542 152 467 149 500 215"/><polygon class="cls-3" points="563 211 500 215 542 152 563 211"/><polygon class="cls-2" points="431 267 508 281 500 215 431 267"/><polygon class="cls-4" points="542 267 500 215 508 281 542 267"/><polygon class="cls-2" points="563 211 542 267 500 215 563 211"/><polygon class="cls-3" points="508 281 505 318 431 267 508 281"/><polygon class="cls-4" points="438 364 431 267 505 318 438 364"/></g></svg>