<svg xmlns="http://www.w3.org/2000/svg" viewBox="0 0 132.98 180.48"><defs><style>.cls-1{fill:#f2bfbf;}</style></defs><title>climb</title><g id="レイヤー_2" data-name="レイヤー 2"><g id="レイヤー_1-2" data-name="レイヤー 1"><path class="cls-1" d="M78.7,46.28a8.2,8.2,0,1,0-8.2-8.19A8.19,8.19,0,0,0,78.7,46.28Z"/><path class="cls-1" d="M104.94,64.93,95.8,54.68c-3.28-3.48-7.14-6.15-17.1-6.15H39.07a3.19,3.19,0,1,0,0,6.38L65,58.74c1.11.14,1.25,0,1.66,1.39C66.84,62.85,68.29,84,68.29,84l-16.1-.12c-4.72.28-7.22,3-5.13,7.63.2.43,13.77,22,13.77,22a4.16,4.16,0,0,0,7.45-3.69l-6.1-14.31,15.39.82L93.9,132.21a4.16,4.16,0,0,0,8.19-1.45L91.27,91l-.13-27.15,5.71,4.27L92.18,78.87a3.19,3.19,0,1,0,5.47,3.28l7.49-12.9A3.92,3.92,0,0,0,104.94,64.93Z"/><polygon class="cls-1" points="132.99 180.48 110.22 140.32 88.36 140.31 96.62 159.32 91.33 159.32 74.08 119.63 31.37 119.63 0 180.48 132.99 180.48"/><path class="cls-1" d="M38.31,46.35v70a1.88,1.88,0,0,0,3.75,0V43.89Z"/><path class="cls-1" d="M38.13,43.15c-1.27.84-2.32.27-2.32-1.25V2.48A2.42,2.42,0,0,1,38.57,0l52.79,6.1c1.51.17,1.71,1,.43,1.84Z"/></g></g></svg>