<svg xmlns="http://www.w3.org/2000/svg" viewBox="0 0 99.58 130.49"><defs><style>.cls-1{fill:#fde9bf;}</style></defs><title>friendship</title><g id="レイヤー_2" data-name="レイヤー 2"><g id="レイヤー_1-2" data-name="レイヤー 1"><path class="cls-1" d="M66,20.17a9.74,9.74,0,1,0-9.74-9.74A9.74,9.74,0,0,0,66,20.17Z"/><path class="cls-1" d="M33.62,20.39a9.75,9.75,0,1,0-9.74-9.75A9.75,9.75,0,0,0,33.62,20.39Z"/><path class="cls-1" d="M23.5,30.31a5.12,5.12,0,1,0-5.11-5.12A5.12,5.12,0,0,0,23.5,30.31Z"/><path class="cls-1" d="M51.22,48.62,46.27,33.45h0C44,26.48,37.72,26,32.52,26c-.75,0-1.44,0-2.1-.06A7,7,0,1,1,18.8,20.07l-.65-.67L7.17,2.08A3.79,3.79,0,1,0,.41,5.51L13.54,34.76l5.18,12.76,2,78a4.95,4.95,0,0,0,9.89,0l2-44.59,2,44.59a4.94,4.94,0,1,0,9.88,0l2.16-70.11c1.39.07,3.32,0,5.22-.07l-.33-6.75Z"/><path class="cls-1" d="M97.5.41a3.78,3.78,0,0,0-5.09,1.67l-11,17.32c-.5.51-1,1-1.43,1.49a6.89,6.89,0,0,1,1.5,4.3,7,7,0,0,1-13.87.8h-.57c-6.54,0-11.54-.22-19.88,4.6l4,12.48,1.37-.4,2.68,82.87a4.94,4.94,0,1,0,9.88,0l2-44.59,2,44.59a4.95,4.95,0,0,0,9.89,0l2-78L86,34.76,99.17,5.51A3.79,3.79,0,0,0,97.5.41Z"/><path class="cls-1" d="M69.43,25.19a5.12,5.12,0,1,0,5.11-5.11A5.11,5.11,0,0,0,69.43,25.19Z"/></g></g></svg>