<svg xmlns="http://www.w3.org/2000/svg" viewBox="0 0 461 364"><defs><style>.cls-1{fill:#24cbf5;}.cls-2{fill:#a8f2ff;}.cls-3{fill:#2da9f5;}.cls-4{fill:#3f79b1;}</style></defs><title>heart</title><g id="heart" data-name="heart"><g id="heart"><polygon class="cls-1" points="231 54 189 93 275 110 231 54"/><polygon class="cls-2" points="280 14 275 110 230 54 280 14"/><polygon class="cls-1" points="189 93 115 76 181 14 189 93"/><polygon class="cls-2" points="230 54 181 14 189 93 230 54"/><polygon class="cls-3" points="115 76 106 0 181 14 115 76"/><polygon class="cls-1" points="39 38 106 0 115 76 39 38"/><polygon class="cls-4" points="0 124 115 76 39 38 0 124"/><polygon class="cls-1" points="22 216 93 146 0 124 22 216"/><polygon class="cls-2" points="115 76 93 146 0 124 115 76"/><polygon class="cls-3" points="189 93 93 146 115 76 189 93"/><polygon class="cls-3" points="275 110 186 168 189 93 275 110"/><polygon class="cls-1" points="93 146 186 168 189 93 93 146"/><polygon class="cls-4" points="22 216 93 146 123 223 22 216"/><polygon class="cls-3" points="93 294 123 223 22 216 93 294"/><polygon class="cls-2" points="186 168 93 146 123 223 186 168"/><polygon class="cls-1" points="275 110 255 185 186 168 275 110"/><polygon class="cls-3" points="123 223 255 185 186 168 123 223"/><polygon class="cls-2" points="93 294 189 297 123 223 93 294"/><polygon class="cls-1" points="230 364 189 297 93 294 230 364"/><polygon class="cls-1" points="255 185 244 242 123 223 255 185"/><polygon class="cls-4" points="189 297 244 242 123 223 189 297"/><polygon class="cls-3" points="230 364 275 294 367 294 230 364"/><polygon class="cls-1" points="189 297 275 294 244 242 189 297"/><polygon class="cls-2" points="230 364 275 294 189 297 230 364"/><polygon class="cls-4" points="275 110 345 45 280 14 275 110"/><polygon class="cls-3" points="355 0 345 45 280 14 355 0"/><polygon class="cls-3" points="422 38 367 110 345 45 422 38"/><polygon class="cls-1" points="355 0 422 38 345 45 355 0"/><polygon class="cls-1" points="275 110 367 110 345 45 275 110"/><polygon class="cls-1" points="461 124 384 173 367 110 461 124"/><polygon class="cls-2" points="422 38 367 110 461 124 422 38"/><polygon class="cls-2" points="275 110 384 173 367 110 275 110"/><polygon class="cls-4" points="255 185 321 213 275 110 255 185"/><polygon class="cls-1" points="384 173 275 110 321 213 384 173"/><polygon class="cls-4" points="461 124 439 216 384 173 461 124"/><polygon class="cls-3" points="321 213 439 216 384 173 321 213"/><polygon class="cls-3" points="244 242 321 213 255 185 244 242"/><polygon class="cls-1" points="367 294 321 213 275 294 367 294"/><polygon class="cls-2" points="244 242 275 294 321 213 244 242"/><polygon class="cls-2" points="439 216 321 213 367 294 439 216"/></g></g></svg>