<svg xmlns="http://www.w3.org/2000/svg" viewBox="0 0 120.75 121.23"><defs><style>.cls-1{fill:#c1eebf;}</style></defs><title>help</title><g id="レイヤー_2" data-name="レイヤー 2"><g id="レイヤー_1-2" data-name="レイヤー 1"><path class="cls-1" d="M48.15,13.34A9.74,9.74,0,1,1,42.7.69,9.74,9.74,0,0,1,48.15,13.34Z"/><path class="cls-1" d="M60.2,49.29,30.9,22.4C27.11,19.23,17.27,19.21,14.59,26,12.14,32.13,1.41,57.37,1.41,57.37-.23,61-.09,66.31.13,68.29l4.61,48a4.94,4.94,0,0,0,9.88,0l3.17-49.16L31.21,40.74,55.67,55.37a3.79,3.79,0,0,0,4.53-6.08Z"/><path class="cls-1" d="M61,103.72l1.93-4.11,3,3.37,11.22-1.68a4.67,4.67,0,0,0,2.67-1.49c.07-.13.3-.58.64-1.26-4.75-4.18-15.74-13.83-15.91-14-3.22-2.22-7.71-.83-9,2.26l-6.88,18.7Z"/><path class="cls-1" d="M120.56,62.6a9.74,9.74,0,1,1-7.66-11.45A9.74,9.74,0,0,1,120.56,62.6Z"/><path class="cls-1" d="M102.6,100.65l4.63,17.52a3.79,3.79,0,0,0,7.44-1.46l-2.92-21.12-2.18-14.47C107.51,71.71,96,70.51,92.64,78.26c0,0-10.46,21.38-11.11,22.52a6.42,6.42,0,0,1-4.06,2.47l-50.31,7.53a4.94,4.94,0,0,0,.2,9.88H82.8a15.79,15.79,0,0,0,14.88-9.35Z"/><path class="cls-1" d="M69.1,62.78,90.73,77.67c0-.08.08-.16.11-.24a10.27,10.27,0,0,1,8.57-6.2L73.12,56.36a3.79,3.79,0,1,0-4,6.42Z"/></g></g></svg>