<svg xmlns="http://www.w3.org/2000/svg" viewBox="0 0 140.69 120.73"><defs><style>.cls-1{fill:#e9bfff;}</style></defs><title>pirates</title><g id="レイヤー_2" data-name="レイヤー 2"><g id="レイヤー_1-2" data-name="レイヤー 1"><path class="cls-1" d="M49.56,18.08A10.56,10.56,0,1,0,60.11,7.53,10.56,10.56,0,0,0,49.56,18.08Z"/><path class="cls-1" d="M93.72,33.77a1.22,1.22,0,0,1-1.47.89l-10.78-3a1.22,1.22,0,0,1-.82-1.52L81.54,27A1.21,1.21,0,0,1,83,26.07L93.8,29a1.23,1.23,0,0,1,.81,1.52Z"/><path class="cls-1" d="M45.32,17.93H72.49V9c0-4.73-2.31-9-6.6-9S58.08,2.2,54.62,6.13c-2,2.31-6.08,4.29-9.66,5.37S41.75,17.93,45.32,17.93Z"/><polygon class="cls-1" points="101 17.05 101 22.72 130.81 23.34 130.81 16.43 101 17.05"/><polygon class="cls-1" points="132.92 15.77 132.92 24.01 140.69 24.25 140.69 15.52 132.92 15.77"/><polygon class="cls-1" points="98.73 17.8 74.11 18.26 74.11 21.51 98.73 21.98 98.73 17.8"/><path class="cls-1" d="M90.69,20.44a3.78,3.78,0,0,0-4.86,2.26l-6.1,13.74s-12.52-3.16-19.12-5.15A14.41,14.41,0,0,0,48.36,33a4.39,4.39,0,0,0-1,.16l-14,4.5-18.62,6a3.79,3.79,0,0,0,2,7.31L35.9,46.59l1.64-.37L24.31,66.11,5.83,88.55h8.48L1.1,112.11a4.94,4.94,0,1,0,7.68,6.22L32.43,88.55H50.66l3.66,1.62-.67,25.21a4.94,4.94,0,0,0,9.85.83s4.68-28,4.68-28c1.15-4.17,0-5.94-5-9.9L57.8,73.92l7.91-26.61.35-.5s11,1.59,15,1.15,5.94-2,7.26-4.62S93,25.3,93,25.3A3.78,3.78,0,0,0,90.69,20.44Z"/></g></g></svg>