<svg xmlns="http://www.w3.org/2000/svg" viewBox="0 0 495 431.25"><defs><style>.cls-1,.cls-4{fill:#fff;}.cls-2{font-size:72px;font-family:FuturaPT-Book, Futura PT;}.cls-3{fill:#007bff;}.cls-4{font-size:48px;font-family:TBChibiRGoPlusKPro-Regular-83pv-RKSJ-H, TBChibiRGothicPlusK Pro;}.cls-5{letter-spacing:0.25em;}</style></defs><title>step1-svg</title><g id="レイヤー_2" data-name="レイヤー 2"><g id="step1"><rect class="cls-1" x="3" y="3" width="489" height="100" rx="12" ry="12"/><path d="M480,6a9,9,0,0,1,9,9V91a9,9,0,0,1-9,9H15a9,9,0,0,1-9-9V15a9,9,0,0,1,9-9H480m0-6H15A15,15,0,0,0,0,15V91a15,15,0,0,0,15,15H480a15,15,0,0,0,15-15V15A15,15,0,0,0,480,0Z"/><text class="cls-2" transform="translate(112.32 79.26)">Twitter_id</text><rect class="cls-1" x="3" y="158" width="489" height="100" rx="12" ry="12"/><path d="M480,161a9,9,0,0,1,9,9v76a9,9,0,0,1-9,9H15a9,9,0,0,1-9-9V170a9,9,0,0,1,9-9H480m0-6H15A15,15,0,0,0,0,170v76a15,15,0,0,0,15,15H480a15,15,0,0,0,15-15V170a15,15,0,0,0-15-15Z"/><text class="cls-2" transform="translate(116.79 234.26)">Suitter_id</text><rect class="cls-3" x="85.5" y="308" width="324" height="106" rx="12.14" ry="12.14"/><text class="cls-4" transform="translate(138.11 378.78)">診断す<tspan class="cls-5" x="144" y="0">る</tspan><tspan x="204" y="0">!</tspan></text><path d="M435.5,379.2v20.15c0,23.52-15.81,31.9-30.6,31.9-16,0-28.86-8.58-33-22a15.11,15.11,0,0,1-8.67-14.2v-8.73a16,16,0,0,1,8.36-14.08l2.07-1.13V345.75c0-9.44,6.89-15.08,13.55-15.08s13.17,5.18,13.17,15.08v17.88a12.78,12.78,0,0,1,5.62,1.53,12.66,12.66,0,0,1,11.65.32,12.31,12.31,0,0,1,4.76-.93C428.76,364.55,435.5,369.68,435.5,379.2Zm-9.2,20.08V379.15c0-3.62-1.91-5.34-3.76-5.34s-3.5,1.56-3.5,4.54h-3.58c0-3.52-1.89-5.23-3.8-5.23s-3.9,1.77-3.9,5.23h-3.68c0-3.65-2-5.46-3.95-5.46s-3.95,1.82-3.95,5.46h-4.95V345.71c0-4-1.91-5.8-3.88-5.8s-4.26,2.07-4.26,5.8v46.87l-.26,0v0l-1.66-1.18-2.92-2V379.26l-2.15,1.17a6.64,6.64,0,0,0-3.45,5.82v9a5.76,5.76,0,0,0,3.59,5.65l3.83,1.54c1.45,12.44,12,19.44,24.94,19.44C415.53,421.87,426.3,416.43,426.3,399.28Z"/><path class="cls-1" d="M426.3,379.15v20.13c0,17.15-10.77,22.59-21.29,22.59-13,0-23.49-7-24.94-19.44l-3.83-1.54a5.76,5.76,0,0,1-3.59-5.65v-9a6.64,6.64,0,0,1,3.45-5.82l2.15-1.17v10.07l2.92,2,1.66,1.18v0l.26,0V345.71c0-3.73,2.16-5.8,4.26-5.8s3.88,1.82,3.88,5.8v32.64h4.95c0-3.64,2-5.46,3.95-5.46s3.95,1.81,3.95,5.46h3.68c0-3.46,2-5.23,3.9-5.23s3.8,1.71,3.8,5.23H419c0-3,1.73-4.54,3.5-4.54S426.3,375.53,426.3,379.15Z"/><path d="M387.35,319.88a2.37,2.37,0,0,0,2.37-2.21l.92-14.15a2.37,2.37,0,0,0-2.36-2.52h-1.84a2.35,2.35,0,0,0-2.36,2.52l.91,14.14A2.36,2.36,0,0,0,387.35,319.88Z"/><path d="M364.3,326.23,355,315.58a2.37,2.37,0,0,0-3.46-.12l-1.3,1.3a2.37,2.37,0,0,0,.12,3.45L361,329.57a2.37,2.37,0,0,0,3.34-3.34Z"/><path d="M413.75,329.59l10.65-9.36a2.36,2.36,0,0,0,.11-3.45l-1.29-1.3a2.37,2.37,0,0,0-3.46.11l-9.36,10.65a2.37,2.37,0,0,0,3.35,3.35Z"/></g></g></svg>