<svg xmlns="http://www.w3.org/2000/svg" viewBox="0 0 550.5 350.54"><defs><style>.cls-1,.cls-2{fill:none;}.cls-1,.cls-2,.cls-5{stroke:#000;}.cls-1,.cls-2,.cls-3{stroke-miterlimit:10;}.cls-1,.cls-5{stroke-width:6px;}.cls-2,.cls-3{stroke-width:2px;}.cls-3{fill:#ff9f74;fill-opacity:0.4;stroke:#ff9f74;}.cls-4{fill:#3fa9f5;}.cls-5{fill:#fff;stroke-linejoin:round;}</style></defs><title>アセット 9</title><g id="レイヤー_2" data-name="レイヤー 2"><g id="step3"><line class="cls-1" x1="412.5" y1="189.34" x2="516.89" y2="189.34"/><line class="cls-1" x1="412.5" y1="208.34" x2="516.89" y2="208.34"/><line class="cls-1" x1="412.5" y1="227.34" x2="516.89" y2="227.34"/><line class="cls-1" x1="412.5" y1="246.34" x2="452.88" y2="246.34"/><g id="チャート背景"><polygon class="cls-2" points="465.82 78.13 416.21 114.17 435.16 172.49 496.48 172.49 515.42 114.17 465.82 78.13"/><polyline class="cls-2" points="465.69 78 465.69 125.21 416.13 113.47"/><polyline class="cls-2" points="435.17 172.41 465.69 125.21 496.46 172.41"/><line class="cls-2" x1="515.5" y1="113.47" x2="465.69" y2="125.21"/></g><polygon class="cls-3" points="465.73 96.44 436.72 118.28 443.88 158.75 485.06 154.81 509.06 114.7 465.73 96.44"/><circle class="cls-4" cx="388" cy="93.5" r="20.5"/><rect class="cls-1" x="3" y="3" width="205.5" height="344.54" rx="30" ry="30"/><rect class="cls-1" x="19.18" y="32" width="173.14" height="262.64"/><circle class="cls-1" cx="105.75" cy="322.18" r="16.61"/><rect class="cls-1" x="342" y="3" width="205.5" height="344.54" rx="30" ry="30"/><rect class="cls-1" x="358.18" y="32" width="173.14" height="262.64"/><circle class="cls-1" cx="444.75" cy="322.18" r="16.61"/><path class="cls-5" d="M322.5,107.5c0,35.62-55.29,64.5-123.5,64.5-32.53,0-62.12-6.57-84.18-17.3C114.5,154,78.5,193,78.5,193s11-56,10.65-56c-8.72-8.84-13.65-18.88-13.65-29.51C75.5,71.88,130.79,43,199,43S322.5,71.88,322.5,107.5Z"/><g id="チャート背景-2" data-name="チャート背景"><polygon class="cls-2" points="149.52 63.86 107.61 94.31 123.62 143.58 175.43 143.58 191.44 94.31 149.52 63.86"/><polyline class="cls-2" points="149.41 63.75 149.41 103.63 107.55 93.72"/><polyline class="cls-2" points="123.63 143.52 149.41 103.63 175.41 143.52"/><line class="cls-2" x1="191.5" y1="93.72" x2="149.41" y2="103.63"/></g><polygon class="cls-3" points="149.45 79.33 124.94 97.78 130.99 131.97 165.78 128.64 186.05 94.76 149.45 79.33"/><line class="cls-1" x1="213.35" y1="83" x2="289.5" y2="83"/><line class="cls-1" x1="213.35" y1="101.33" x2="289.5" y2="101.33"/><line class="cls-1" x1="213.35" y1="119.67" x2="289.5" y2="119.67"/><line class="cls-1" x1="213.35" y1="138" x2="242.8" y2="138"/></g></g></svg>