<svg xmlns="http://www.w3.org/2000/svg" viewBox="0 0 568.13 370.96"><defs><style>.cls-1,.cls-2{fill:none;stroke:#000;}.cls-1,.cls-2,.cls-3,.cls-4,.cls-5{stroke-miterlimit:10;}.cls-1,.cls-3,.cls-4,.cls-5{stroke-width:6px;}.cls-2{stroke-width:7.05px;}.cls-3{fill:#7fff8a;stroke:#7fff8a;}.cls-3,.cls-4,.cls-5{fill-opacity:0.4;}.cls-4{fill:#4a9bff;stroke:#4a9bff;}.cls-5{fill:#ff9f74;stroke:#ff9f74;}</style></defs><title>アセット 8</title><g id="レイヤー_2" data-name="レイヤー 2"><g id="step2"><line class="cls-1" x1="30.52" y1="294.36" x2="251.35" y2="294.36"/><line class="cls-1" x1="30.52" y1="318.89" x2="251.35" y2="318.89"/><line class="cls-1" x1="30.52" y1="343.43" x2="165.02" y2="343.43"/><line class="cls-1" x1="320.42" y1="294.36" x2="541.25" y2="294.36"/><line class="cls-1" x1="320.42" y1="318.89" x2="541.25" y2="318.89"/><line class="cls-1" x1="320.42" y1="343.43" x2="541.25" y2="343.43"/><line class="cls-1" x1="320.42" y1="367.96" x2="405.84" y2="367.96"/><g id="チャート背景"><polygon class="cls-2" points="137.62 4.36 4.14 101.33 55.13 258.25 220.11 258.25 271.1 101.33 137.62 4.36"/><polyline class="cls-2" points="137.27 4.01 137.27 131.02 3.94 99.44"/><polyline class="cls-2" points="55.17 258.03 137.27 131.02 220.07 258.03"/><line class="cls-2" x1="271.3" y1="99.44" x2="137.27" y2="131.02"/></g><polygon class="cls-3" points="137.27 41.2 80.43 114.88 104.99 180.84 203.94 232.77 226.39 109.97 137.27 41.2"/><polygon class="cls-4" points="137.62 80.14 47.1 109.62 85.69 210.67 178.32 194.53 239.37 106.81 137.62 80.14"/><g id="チャート背景-2" data-name="チャート背景"><polygon class="cls-2" points="430.51 4.36 297.04 101.33 348.02 258.25 513 258.25 563.99 101.33 430.51 4.36"/><polyline class="cls-2" points="430.16 4.01 430.16 131.02 296.83 99.44"/><polyline class="cls-2" points="348.06 258.03 430.16 131.02 512.97 258.03"/><line class="cls-2" x1="564.19" y1="99.44" x2="430.16" y2="131.02"/></g><polygon class="cls-5" points="430.27 53.62 352.23 112.39 371.5 221.27 482.3 210.67 546.85 102.76 430.27 53.62"/></g></g></svg>