<svg xmlns="http://www.w3.org/2000/svg" viewBox="0 0 76.73 100.8"><defs><style>.cls-1{fill:#bfdcff;}</style></defs><title>thinking</title><g id="レイヤー_2" data-name="レイヤー 2"><g id="レイヤー_1-2" data-name="レイヤー 1"><path class="cls-1" d="M11.15,39l4.44-9.71-2.83-5A3.79,3.79,0,0,0,6,27.77Z"/><path class="cls-1" d="M21.73,49.64l19.76-3.77c-.94-1.56-5.24-7.55-12.28-9.75L11.61,61.64a4.07,4.07,0,0,1-5.42,1.84A4,4,0,0,1,4.38,58.1L18,28.3c3.57-7.7,7.59-14.51,18-12.49,9.75,1.38,19.67,10.25,25.78,23.3s1.1,22.75-11.2,22.94H33.29l7.14,18.37a4.75,4.75,0,0,1-9,3.07L17.59,59.11C15.19,54.74,17.11,50.64,21.73,49.64Z"/><path class="cls-1" d="M76.73,100.8V84.3l-4-4L71,71.1l-.17-5.94-1.65-2H43.07l-2.64,6.6V92.22l-2.64,2.64v5.94Z"/><path class="cls-1" d="M.07,11.48a10.34,10.34,0,0,0,11.5,9.06A10.3,10.3,0,1,0,.07,11.48Z"/></g></g></svg>