<svg xmlns="http://www.w3.org/2000/svg" viewBox="0 0 442 364"><defs><style>.cls-1{fill:#24cbf5;}.cls-2{fill:#a8f2ff;}.cls-3{fill:#2da9f5;}.cls-4{fill:#3f79b1;}</style></defs><title>twitter</title><g id="twitter" data-name="twitter"><g id="twitter"><polygon class="cls-1" points="305 49 321 0 256 15 305 49"/><polygon class="cls-2" points="225 56 272 54 256 15 225 56"/><polygon class="cls-3" points="305 49 272 54 256 15 305 49"/><polygon class="cls-4" points="377 29 305 49 321 0 377 29"/><polygon class="cls-4" points="431 8 377 29 415 34 431 8"/><polygon class="cls-3" points="383 54 377 29 415 34 383 54"/><polygon class="cls-2" points="383 54 305 49 377 29 383 54"/><polygon class="cls-1" points="394 89 407 56 383 54 394 89"/><polygon class="cls-2" points="425 68 407 56 394 89 425 68"/><polygon class="cls-3" points="442 45 425 68 407 56 442 45"/><polygon class="cls-4" points="394 89 342 84 383 54 394 89"/><polygon class="cls-3" points="305 49 342 84 383 54 305 49"/><polygon class="cls-2" points="272 54 342 84 305 49 272 54"/><polygon class="cls-3" points="225 56 265 103 272 54 225 56"/><polygon class="cls-1" points="342 84 299 88 272 54 342 84"/><polygon class="cls-2" points="265 103 299 88 272 54 265 103"/><polygon class="cls-1" points="225 56 220 110 265 103 225 56"/><polygon class="cls-1" points="342 84 395 157 394 89 342 84"/><polygon class="cls-4" points="299 88 321 145 342 84 299 88"/><polygon class="cls-3" points="395 157 321 145 342 84 395 157"/><polygon class="cls-1" points="299 88 265 103 321 145 299 88"/><polygon class="cls-3" points="220 110 256 157 265 103 220 110"/><polygon class="cls-2" points="321 145 256 157 265 103 321 145"/><polygon class="cls-4" points="220 110 194 159 256 157 220 110"/><polygon class="cls-2" points="321 145 339 185 395 157 321 145"/><polygon class="cls-4" points="352 254 339 185 395 157 352 254"/><polygon class="cls-4" points="256 157 339 185 321 145 256 157"/><polygon class="cls-3" points="352 254 302 219 339 185 352 254"/><polygon class="cls-3" points="256 157 265 200 339 185 256 157"/><polygon class="cls-2" points="302 219 265 200 339 185 302 219"/><polygon class="cls-1" points="352 254 302 219 267 329 352 254"/><polygon class="cls-2" points="256 157 265 200 194 159 256 157"/><polygon class="cls-2" points="267 329 196 319 302 219 267 329"/><polygon class="cls-1" points="265 200 196 319 302 219 265 200"/><line class="cls-2" x1="196" y1="319" x2="267" y2="329"/><polygon class="cls-3" points="196 319 198 239 265 200 196 319"/><line class="cls-4" x1="198" y1="239" x2="196" y2="319"/><polygon class="cls-1" points="265 200 146 202 194 159 265 200"/><polygon class="cls-2" points="198 239 146 202 265 200 198 239"/><polygon class="cls-2" points="198 239 133 284 196 319 198 239"/><polygon class="cls-3" points="267 329 196 319 137 364 267 329"/><polygon class="cls-4" points="137 364 133 284 196 319 137 364"/><polygon class="cls-3" points="47 346 137 364 64 322 47 346"/><polygon class="cls-4" points="0 323 64 322 47 346 0 323"/><polygon class="cls-1" points="64 322 133 284 137 364 64 322"/><polygon class="cls-4" points="146 202 133 284 198 239 146 202"/><polygon class="cls-3" points="47 222 89 219 85 269 47 222"/><polygon class="cls-2" points="133 284 89 219 85 269 133 284"/><polygon class="cls-3" points="146 202 89 219 133 284 146 202"/><polygon class="cls-2" points="21 86 90 74 31 18 21 86"/><polygon class="cls-3" points="55 138 90 74 21 86 55 138"/><polygon class="cls-4" points="55 138 152 102 90 74 55 138"/><polygon class="cls-1" points="152 102 220 110 194 159 152 102"/><polygon class="cls-1" points="55 138 16 130 38 191 55 138"/><polygon class="cls-3" points="89 219 38 191 55 138 89 219"/><polygon class="cls-1" points="146 202 55 138 89 219 146 202"/><polygon class="cls-3" points="194 159 133 150 152 102 194 159"/><polygon class="cls-2" points="146 202 133 150 194 159 146 202"/><polygon class="cls-2" points="55 138 133 150 152 102 55 138"/><polygon class="cls-3" points="146 202 133 150 55 138 146 202"/></g></g></svg>